<svg width="416" height="84" viewBox="0 0 416 84" fill="none" xmlns="http://www.w3.org/2000/svg">
<path d="M1.152 33.472V32.96H1.984C4.24533 32.96 6.272 32.3413 8.064 31.104C9.89867 29.8667 11.5627 27.904 13.056 25.216H13.632V32.96H19.904V33.472H13.632V57.344C13.632 59.136 13.9093 60.5653 14.464 61.632C15.0187 62.6987 16.0213 63.232 17.472 63.232C18.0267 63.232 18.5387 63.1253 19.008 62.912C19.4773 62.656 19.8187 62.2933 20.032 61.824L20.416 62.016C19.904 62.9547 19.0293 63.616 17.792 64C16.5547 64.4267 15.04 64.64 13.248 64.64C11.712 64.64 10.3253 64.4267 9.088 64C7.85067 63.616 6.89067 62.9333 6.208 61.952C5.52533 60.9707 5.184 59.6053 5.184 57.856V33.472H1.152ZM37.8185 63.488V64H22.3305V63.488H25.8505V16.512H22.3305V16H34.2985V38.848C35.3652 36.4587 36.7518 34.7733 38.4585 33.792C40.2078 32.8107 42.1492 32.32 44.2825 32.32C46.4585 32.32 48.2078 32.6187 49.5305 33.216C50.8958 33.8133 51.8772 34.8587 52.4745 36.352C53.1145 37.8027 53.4345 39.8293 53.4345 42.432V63.488H56.9545V64H41.4665V63.488H44.9865V37.952C44.9865 36.4587 44.7518 35.328 44.2825 34.56C43.8558 33.792 43.0452 33.408 41.8505 33.408C40.5705 33.408 39.1838 33.984 37.6905 35.136C36.2398 36.288 35.1092 38.08 34.2985 40.512V63.488H37.8185ZM59.862 48.512C59.862 42.9653 61.142 38.8907 63.702 36.288C66.3047 33.6427 69.91 32.32 74.518 32.32C78.614 32.32 81.5153 33.1733 83.222 34.88C84.9713 36.5867 85.846 38.7627 85.846 41.408C85.846 42.2187 85.7393 43.072 85.526 43.968C85.3553 44.8213 85.078 45.5893 84.694 46.272H68.886C68.886 46.4427 68.886 46.8053 68.886 47.36C68.886 47.872 68.886 48.256 68.886 48.512C68.886 51.6267 69.0993 54.2933 69.526 56.512C69.9953 58.688 70.8273 60.3733 72.022 61.568C73.2593 62.72 75.0727 63.296 77.462 63.296C78.9127 63.296 80.1927 62.9547 81.302 62.272C82.4113 61.5893 83.2647 60.7147 83.862 59.648C84.502 58.5387 84.822 57.4293 84.822 56.32H85.398C85.398 57.5573 85.014 58.816 84.246 60.096C83.5207 61.376 82.3687 62.464 80.79 63.36C79.2113 64.2133 77.142 64.64 74.582 64.64C69.8887 64.64 66.262 63.3813 63.702 60.864C61.142 58.3467 59.862 54.2293 59.862 48.512ZM74.518 32.832C72.2993 32.832 70.8273 33.984 70.102 36.288C69.3767 38.5493 68.9713 41.7067 68.886 45.76H75.67C77.0353 45.76 77.9313 45.3333 78.358 44.48C78.7847 43.584 78.998 42.3893 78.998 40.896C78.998 39.4027 78.8913 38.0587 78.678 36.864C78.5073 35.6267 78.102 34.6453 77.462 33.92C76.822 33.1947 75.8407 32.832 74.518 32.832ZM105.216 63.488V64H89.664V63.488H93.248V32.32H90.048V31.808C90.9013 31.808 91.8827 31.7227 92.992 31.552C94.1013 31.3813 95.2107 31.1467 96.32 30.848C97.4293 30.5493 98.4107 30.208 99.264 29.824C100.16 29.3973 100.8 28.9493 101.184 28.48H101.696V63.488H105.216ZM139.639 46.144C139.639 52.1173 138.38 56.704 135.863 59.904C133.345 63.0613 129.463 64.64 124.215 64.64C119.436 64.64 115.66 63.0613 112.887 59.904C110.156 56.704 108.791 52.1173 108.791 46.144C108.791 40.2133 110.156 35.6907 112.887 32.576C115.66 29.4187 119.436 27.84 124.215 27.84C129.463 27.84 133.345 29.4187 135.863 32.576C138.38 35.6907 139.639 40.2133 139.639 46.144ZM130.999 46.144C130.999 41.9627 130.807 38.5707 130.423 35.968C130.039 33.3227 129.356 31.4027 128.375 30.208C127.436 28.9707 126.049 28.352 124.215 28.352C122.508 28.352 121.164 28.9707 120.183 30.208C119.201 31.4027 118.497 33.3227 118.071 35.968C117.687 38.5707 117.495 41.9627 117.495 46.144C117.495 50.368 117.687 53.8027 118.071 56.448C118.497 59.0933 119.201 61.0347 120.183 62.272C121.164 63.5093 122.508 64.128 124.215 64.128C126.049 64.128 127.436 63.5093 128.375 62.272C129.356 61.0347 130.039 59.0933 130.423 56.448C130.807 53.8027 130.999 50.368 130.999 46.144ZM124.215 49.024L121.527 46.272L124.215 43.52L126.967 46.272L124.215 49.024ZM166.463 18.112C164.884 18.112 163.434 18.7733 162.111 20.096C160.788 21.376 159.594 23.104 158.527 25.28C157.503 27.4133 156.586 29.8027 155.775 32.448C154.964 35.0507 154.303 37.7173 153.791 40.448C153.279 43.136 152.895 45.6747 152.639 48.064C152.383 50.4533 152.255 52.4587 152.255 54.08C152.255 56.2133 152.383 58.0267 152.639 59.52C152.895 61.0133 153.343 62.1653 153.983 62.976C154.623 63.744 155.476 64.128 156.543 64.128C157.951 64.128 159.124 63.616 160.063 62.592C161.044 61.5253 161.855 60.16 162.495 58.496C163.135 56.832 163.583 55.0187 163.839 53.056C164.138 51.0507 164.287 49.088 164.287 47.168C164.287 45.76 164.159 44.5653 163.903 43.584C163.647 42.6027 163.22 41.856 162.623 41.344C162.026 40.832 161.215 40.576 160.191 40.576C159.38 40.576 158.591 40.7893 157.823 41.216C157.055 41.6427 156.287 42.2827 155.519 43.136L155.263 42.752C156.458 41.4293 157.674 40.4907 158.911 39.936C160.148 39.3387 161.492 39.04 162.943 39.04C165.076 39.04 166.847 39.4453 168.255 40.256C169.706 41.024 170.794 42.1333 171.519 43.584C172.244 45.0347 172.607 46.7627 172.607 48.768C172.607 51.6693 171.903 54.3147 170.495 56.704C169.13 59.0933 167.21 61.0133 164.735 62.464C162.303 63.9147 159.466 64.64 156.223 64.64C153.62 64.64 151.423 64.0427 149.631 62.848C147.839 61.6107 146.474 59.8187 145.535 57.472C144.639 55.1253 144.191 52.288 144.191 48.96C144.191 45.504 144.596 42.2187 145.407 39.104C146.218 35.9467 147.327 33.0667 148.735 30.464C150.143 27.8187 151.786 25.5573 153.663 23.68C155.54 21.76 157.567 20.2667 159.743 19.2C161.962 18.1333 164.244 17.6 166.591 17.6C170.047 17.6 172.607 18.176 174.271 19.328C175.978 20.48 176.831 22.1867 176.831 24.448C176.831 26.5387 175.914 28.3093 174.079 29.76C172.287 31.2107 169.77 32.0213 166.527 32.192L166.463 31.936C167.828 31.1253 168.874 29.952 169.599 28.416C170.324 26.88 170.687 25.3013 170.687 23.68C170.687 22.656 170.559 21.7173 170.303 20.864C170.09 20.0107 169.663 19.3493 169.023 18.88C168.426 18.368 167.572 18.112 166.463 18.112ZM205.509 50.752C205.509 52.9707 204.911 55.1467 203.717 57.28C202.522 59.4133 200.709 61.184 198.277 62.592C195.845 63.9573 192.751 64.64 188.997 64.64C186.223 64.64 183.919 64.2347 182.085 63.424C180.25 62.6133 178.863 61.504 177.924 60.096C177.029 58.6453 176.581 56.96 176.581 55.04C176.581 52.1387 177.562 49.6853 179.525 47.68C181.53 45.632 184.431 43.7973 188.229 42.176L187.781 41.792C185.775 40.0427 184.175 38.4 182.981 36.864C181.829 35.2853 181.253 33.3227 181.253 30.976C181.253 28.7147 181.85 26.624 183.045 24.704C184.239 22.7413 186.01 21.184 188.357 20.032C190.703 18.8373 193.541 18.24 196.869 18.24C200.666 18.24 203.482 18.9867 205.317 20.48C207.151 21.9733 208.069 24.0427 208.069 26.688C208.069 29.0773 207.215 31.3173 205.509 33.408C203.802 35.456 201.007 37.056 197.125 38.208L198.149 39.04C199.642 40.1493 200.922 41.2587 201.989 42.368C203.098 43.4773 203.951 44.7147 204.549 46.08C205.189 47.4027 205.509 48.96 205.509 50.752ZM193.797 35.264L196.421 37.632C197.359 36.7787 198.234 35.7333 199.045 34.496C199.898 33.2587 200.559 31.872 201.029 30.336C201.541 28.8 201.797 27.2 201.797 25.536C201.797 23.4453 201.37 21.8027 200.517 20.608C199.663 19.3707 198.234 18.752 196.229 18.752C194.522 18.752 193.157 19.1573 192.133 19.968C191.109 20.736 190.362 21.7173 189.893 22.912C189.466 24.1067 189.253 25.3227 189.253 26.56C189.253 28.224 189.551 29.696 190.149 30.976C190.789 32.2133 192.005 33.6427 193.797 35.264ZM183.685 56.32C183.685 57.6427 183.877 58.9013 184.26 60.096C184.687 61.2907 185.327 62.2507 186.181 62.976C187.034 63.7013 188.186 64.0853 189.637 64.128C191.13 64.128 192.367 63.8507 193.349 63.296C194.33 62.6987 195.098 61.9307 195.653 60.992C196.25 60.0107 196.655 59.008 196.869 57.984C197.125 56.96 197.253 56.0213 197.253 55.168C197.253 54.016 197.125 52.9493 196.869 51.968C196.655 50.9867 196.25 50.048 195.653 49.152C195.055 48.2133 194.245 47.3173 193.221 46.464L188.997 42.88C187.247 44.544 185.925 46.6133 185.029 49.088C184.133 51.52 183.685 53.9307 183.685 56.32ZM214.784 64.64C213.675 64.64 212.693 64.2133 211.84 63.36C211.029 62.5067 210.624 61.5253 210.624 60.416C210.624 59.2213 211.029 58.2187 211.84 57.408C212.693 56.5973 213.675 56.192 214.784 56.192C215.936 56.192 216.917 56.5973 217.728 57.408C218.581 58.2187 219.008 59.2213 219.008 60.416C219.008 61.5253 218.581 62.5067 217.728 63.36C216.917 64.2133 215.936 64.64 214.784 64.64Z" fill="black"/>
<path d="M244.304 76.24C240.315 76.24 236.915 75.696 234.104 74.608C231.293 73.52 229.14 71.9333 227.644 69.848C226.148 67.7627 225.4 65.224 225.4 62.232H238.184C238.184 63.1387 238.297 63.8413 238.524 64.34C238.796 64.884 239.408 65.2467 240.36 65.428C241.357 65.6093 242.967 65.7 245.188 65.7C247.047 65.7 248.452 65.5413 249.404 65.224C250.401 64.952 251.081 64.34 251.444 63.388C251.807 62.436 251.988 61.008 251.988 59.104V38.16H252.804V29.728H264.772V58.22C264.772 62.3 263.979 65.6547 262.392 68.284C260.805 70.9587 258.493 72.9533 255.456 74.268C252.419 75.5827 248.701 76.24 244.304 76.24ZM239.272 60.192C235.872 60.192 232.993 59.58 230.636 58.356C228.279 57.0867 226.465 55.296 225.196 52.984C223.972 50.6267 223.36 47.816 223.36 44.552C223.36 41.3333 223.995 38.568 225.264 36.256C226.579 33.944 228.46 32.176 230.908 30.952C233.356 29.6827 236.257 29.048 239.612 29.048C243.103 29.048 245.936 29.7733 248.112 31.224C250.333 32.6293 251.671 34.8053 252.124 37.752H254.232L253.28 44.484H251.988C251.988 43.26 251.693 42.3307 251.104 41.696C250.56 41.0613 249.699 40.6307 248.52 40.404C247.341 40.1773 245.8 40.064 243.896 40.064C241.901 40.064 240.337 40.2227 239.204 40.54C238.116 40.812 237.345 41.2653 236.892 41.9C236.484 42.5347 236.28 43.4187 236.28 44.552C236.28 45.6853 236.484 46.592 236.892 47.272C237.345 47.952 238.116 48.4507 239.204 48.768C240.337 49.0853 241.901 49.244 243.896 49.244C246.752 49.244 248.815 48.9947 250.084 48.496C251.353 47.952 251.988 46.7733 251.988 44.96H253.28V51.896H251.308C250.855 54.3893 249.676 56.4067 247.772 57.948C245.868 59.444 243.035 60.192 239.272 60.192ZM282.94 64.68C279.767 64.68 277.138 64.1133 275.052 62.98C272.967 61.8467 271.403 60.3053 270.36 58.356C269.363 56.4067 268.864 54.1853 268.864 51.692V29.728H281.648V47C281.648 49.3573 282.192 50.9893 283.28 51.896C284.414 52.8027 286.431 53.256 289.332 53.256C292.279 53.256 294.228 52.848 295.18 52.032C296.178 51.1707 296.676 49.6293 296.676 47.408H297.968L299.056 53.596H296.812C296.586 55.5 295.974 57.2907 294.976 58.968C293.979 60.6453 292.506 62.028 290.556 63.116C288.607 64.1587 286.068 64.68 282.94 64.68ZM309.46 64H297.492V53.46L296.676 53.12V29.728H309.46V64ZM326.074 64H313.29V29.728H326.074V64ZM326.074 26.6H313.29V18.44H326.074V26.6ZM345.729 64.68C342.239 64.68 339.269 63.9773 336.821 62.572C334.419 61.1213 332.583 59.0587 331.313 56.384C330.089 53.7093 329.477 50.536 329.477 46.864C329.477 43.1467 330.089 39.9733 331.313 37.344C332.537 34.6693 334.305 32.6293 336.617 31.224C338.975 29.7733 341.831 29.048 345.185 29.048C349.22 29.048 352.257 29.932 354.297 31.7C356.337 33.4227 357.607 35.712 358.105 38.568H360.077V46.456H358.785C358.785 44.0533 358.083 42.4893 356.677 41.764C355.317 41.0387 353.209 40.676 350.353 40.676C348.404 40.676 346.84 40.88 345.661 41.288C344.483 41.696 343.644 42.3533 343.145 43.26C342.647 44.1213 342.397 45.3227 342.397 46.864C342.397 48.36 342.647 49.5613 343.145 50.468C343.644 51.3747 344.483 52.032 345.661 52.44C346.84 52.8027 348.404 52.984 350.353 52.984C352.257 52.984 353.821 52.8253 355.045 52.508C356.315 52.1907 357.244 51.6013 357.833 50.74C358.468 49.8333 358.785 48.564 358.785 46.932H360.077L361.029 54.752H358.921C358.377 58.152 357.04 60.668 354.909 62.3C352.824 63.8867 349.764 64.68 345.729 64.68ZM371.569 64H359.601V54.344L358.785 53.46V18.44H371.569V64ZM394.753 64.68C390.9 64.68 387.477 64.0907 384.485 62.912C381.493 61.7333 379.159 59.8293 377.481 57.2C375.804 54.5707 374.965 51.1253 374.965 46.864C374.965 43.1467 375.804 39.9733 377.481 37.344C379.159 34.6693 381.448 32.6293 384.349 31.224C387.296 29.7733 390.673 29.048 394.481 29.048C398.425 29.048 401.848 29.7053 404.749 31.02C407.651 32.2893 409.895 34.1933 411.481 36.732C413.068 39.2253 413.861 42.308 413.861 45.98C413.861 46.5693 413.839 47.1133 413.793 47.612C413.793 48.0653 413.748 48.6093 413.657 49.244H383.329V42.784H404.409L401.621 46.796C401.621 46.388 401.621 46.0027 401.621 45.64C401.621 45.232 401.621 44.824 401.621 44.416C401.621 42.3307 401.077 40.88 399.989 40.064C398.947 39.248 397.02 38.84 394.209 38.84C391.308 38.84 389.336 39.2933 388.293 40.2C387.296 41.1067 386.797 42.7387 386.797 45.096V48.36C386.797 50.7627 387.319 52.3947 388.361 53.256C389.404 54.1173 391.376 54.548 394.277 54.548C396.861 54.548 398.584 54.3213 399.445 53.868C400.352 53.3693 400.805 52.6213 400.805 51.624V50.876H413.589V51.692C413.589 54.2307 412.819 56.4747 411.277 58.424C409.736 60.3733 407.56 61.9147 404.749 63.048C401.939 64.136 398.607 64.68 394.753 64.68Z" fill="url(#paint0_linear_1120_51)"/>
<defs>
<linearGradient id="paint0_linear_1120_51" x1="236.126" y1="9.56962" x2="318.485" y2="123.141" gradientUnits="userSpaceOnUse">
<stop stop-color="#EB2881"/>
<stop offset="0.3" stop-color="#EB3028"/>
<stop offset="0.54" stop-color="#EB5228"/>
<stop offset="0.785" stop-color="#EB7428"/>
<stop offset="1" stop-color="#EB9628"/>
</linearGradient>
</defs>
</svg>
