<svg width="492" height="98" viewBox="0 0 492 98" fill="none" xmlns="http://www.w3.org/2000/svg">
  <path
    d="M49.864 94.976V96H13.896V94.976H23.24V5.504H15.688C12.36 5.504 9.62933 6.61333 7.496 8.83199C5.448 10.9653 3.95467 13.7813 3.016 17.28C2.07733 20.6933 1.608 24.3627 1.608 28.288H0.328V4.48H63.56V28.288H62.28C62.28 24.3627 61.768 20.6933 60.744 17.28C59.8053 13.7813 58.312 10.9653 56.264 8.83199C54.216 6.61333 51.528 5.504 48.2 5.504H40.648V94.976H49.864ZM101.387 94.976V96H70.411V94.976H77.451V1.02399H70.411V-7.62939e-06H94.347V45.696C96.4803 40.9173 99.2537 37.5467 102.667 35.584C106.166 33.6213 110.048 32.64 114.315 32.64C118.667 32.64 122.166 33.2373 124.811 34.432C127.542 35.6267 129.504 37.7173 130.699 40.704C131.979 43.6053 132.619 47.6587 132.619 52.864V94.976H139.659V96H108.683V94.976H115.723V43.904C115.723 40.9173 115.254 38.656 114.315 37.12C113.462 35.584 111.84 34.816 109.451 34.816C106.891 34.816 104.118 35.968 101.131 38.272C98.2297 40.576 95.9683 44.16 94.347 49.024V94.976H101.387ZM145.474 65.024C145.474 53.9307 148.034 45.7813 153.154 40.576C158.359 35.2853 165.57 32.64 174.786 32.64C182.978 32.64 188.781 34.3467 192.194 37.76C195.693 41.1733 197.442 45.5253 197.442 50.816C197.442 52.4373 197.229 54.144 196.802 55.936C196.461 57.6427 195.906 59.1787 195.138 60.544H163.522C163.522 60.8853 163.522 61.6107 163.522 62.72C163.522 63.744 163.522 64.512 163.522 65.024C163.522 71.2533 163.949 76.5867 164.802 81.024C165.741 85.376 167.405 88.7467 169.794 91.136C172.269 93.44 175.895 94.592 180.674 94.592C183.575 94.592 186.135 93.9093 188.354 92.544C190.573 91.1787 192.279 89.4293 193.474 87.296C194.754 85.0773 195.394 82.8587 195.394 80.64H196.546C196.546 83.1147 195.778 85.632 194.242 88.192C192.791 90.752 190.487 92.928 187.33 94.72C184.173 96.4267 180.034 97.28 174.914 97.28C165.527 97.28 158.274 94.7627 153.154 89.728C148.034 84.6933 145.474 76.4587 145.474 65.024ZM174.786 33.664C170.349 33.664 167.405 35.968 165.954 40.576C164.503 45.0987 163.693 51.4133 163.522 59.52H177.09C179.821 59.52 181.613 58.6667 182.466 56.96C183.319 55.168 183.746 52.7787 183.746 49.792C183.746 46.8053 183.533 44.1173 183.106 41.728C182.765 39.2533 181.954 37.2907 180.674 35.84C179.394 34.3893 177.431 33.664 174.786 33.664ZM264.307 94.976V96H233.203V94.976H240.371V32.64H233.971V31.616C235.678 31.616 237.64 31.4453 239.859 31.104C242.078 30.7627 244.296 30.2933 246.515 29.696C248.734 29.0987 250.696 28.416 252.403 27.648C254.195 26.7947 255.475 25.8987 256.243 24.96H257.267V94.976H264.307ZM333.152 60.288C333.152 72.2347 330.635 81.408 325.6 87.808C320.565 94.1227 312.8 97.28 302.304 97.28C292.747 97.28 285.195 94.1227 279.648 87.808C274.187 81.408 271.456 72.2347 271.456 60.288C271.456 48.4267 274.187 39.3813 279.648 33.152C285.195 26.8373 292.747 23.68 302.304 23.68C312.8 23.68 320.565 26.8373 325.6 33.152C330.635 39.3813 333.152 48.4267 333.152 60.288ZM315.872 60.288C315.872 51.9253 315.488 45.1413 314.72 39.936C313.952 34.6453 312.587 30.8053 310.624 28.416C308.747 25.9413 305.973 24.704 302.304 24.704C298.891 24.704 296.203 25.9413 294.24 28.416C292.277 30.8053 290.869 34.6453 290.016 39.936C289.248 45.1413 288.864 51.9253 288.864 60.288C288.864 68.736 289.248 75.6053 290.016 80.896C290.869 86.1867 292.277 90.0693 294.24 92.544C296.203 95.0187 298.891 96.256 302.304 96.256C305.973 96.256 308.747 95.0187 310.624 92.544C312.587 90.0693 313.952 86.1867 314.72 80.896C315.488 75.6053 315.872 68.736 315.872 60.288ZM302.304 66.048L296.928 60.544L302.304 55.04L307.808 60.544L302.304 66.048ZM386.801 4.224C383.644 4.224 380.742 5.54666 378.097 8.19199C375.452 10.752 373.062 14.208 370.929 18.56C368.881 22.8267 367.046 27.6053 365.425 32.896C363.804 38.1013 362.481 43.4347 361.457 48.896C360.433 54.272 359.665 59.3493 359.153 64.128C358.641 68.9067 358.385 72.9173 358.385 76.16C358.385 80.4267 358.641 84.0533 359.153 87.04C359.665 90.0267 360.561 92.3307 361.841 93.952C363.121 95.488 364.828 96.256 366.961 96.256C369.777 96.256 372.124 95.232 374.001 93.184C375.964 91.0507 377.585 88.32 378.865 84.992C380.145 81.664 381.041 78.0373 381.553 74.112C382.15 70.1013 382.449 66.176 382.449 62.336C382.449 59.52 382.193 57.1307 381.681 55.168C381.169 53.2053 380.316 51.712 379.121 50.688C377.926 49.664 376.305 49.152 374.257 49.152C372.636 49.152 371.057 49.5787 369.521 50.432C367.985 51.2853 366.449 52.5653 364.913 54.272L364.401 53.504C366.79 50.8587 369.222 48.9813 371.697 47.872C374.172 46.6773 376.86 46.08 379.761 46.08C384.028 46.08 387.569 46.8907 390.385 48.512C393.286 50.048 395.462 52.2667 396.913 55.168C398.364 58.0693 399.089 61.5253 399.089 65.536C399.089 71.3387 397.681 76.6293 394.865 81.408C392.134 86.1867 388.294 90.0267 383.345 92.928C378.481 95.8293 372.806 97.28 366.321 97.28C361.116 97.28 356.721 96.0853 353.137 93.696C349.553 91.2213 346.822 87.6373 344.945 82.944C343.153 78.2507 342.257 72.576 342.257 65.92C342.257 59.008 343.068 52.4373 344.689 46.208C346.31 39.8933 348.529 34.1333 351.345 28.928C354.161 23.6373 357.446 19.1147 361.201 15.36C364.956 11.52 369.009 8.53333 373.361 6.39999C377.798 4.26666 382.364 3.2 387.057 3.2C393.969 3.2 399.089 4.352 402.417 6.656C405.83 8.96 407.537 12.3733 407.537 16.896C407.537 21.0773 405.702 24.6187 402.033 27.52C398.449 30.4213 393.414 32.0427 386.929 32.384L386.801 31.872C389.532 30.2507 391.622 27.904 393.073 24.832C394.524 21.76 395.249 18.6027 395.249 15.36C395.249 13.312 394.993 11.4347 394.481 9.728C394.054 8.02133 393.201 6.69866 391.921 5.75999C390.726 4.736 389.02 4.224 386.801 4.224ZM464.892 69.504C464.892 73.9413 463.697 78.2933 461.308 82.56C458.919 86.8267 455.292 90.368 450.428 93.184C445.564 95.9147 439.377 97.28 431.868 97.28C426.321 97.28 421.713 96.4693 418.044 94.848C414.375 93.2267 411.601 91.008 409.724 88.192C407.932 85.2907 407.036 81.92 407.036 78.08C407.036 72.2773 408.999 67.3707 412.924 63.36C416.935 59.264 422.737 55.5947 430.332 52.352L429.436 51.584C425.425 48.0853 422.225 44.8 419.836 41.728C417.532 38.5707 416.38 34.6453 416.38 29.952C416.38 25.4293 417.575 21.248 419.964 17.408C422.353 13.4827 425.895 10.368 430.588 8.064C435.281 5.67466 440.956 4.48 447.612 4.48C455.207 4.48 460.839 5.97333 464.508 8.96C468.177 11.9467 470.012 16.0853 470.012 21.376C470.012 26.1547 468.305 30.6347 464.892 34.816C461.479 38.912 455.889 42.112 448.124 44.416L450.172 46.08C453.159 48.2987 455.719 50.5173 457.852 52.736C460.071 54.9547 461.777 57.4293 462.972 60.16C464.252 62.8053 464.892 65.92 464.892 69.504ZM441.468 38.528L446.716 43.264C448.593 41.5573 450.343 39.4667 451.964 36.992C453.671 34.5173 454.993 31.744 455.932 28.672C456.956 25.6 457.468 22.4 457.468 19.072C457.468 14.8907 456.615 11.6053 454.908 9.216C453.201 6.74133 450.343 5.504 446.332 5.504C442.919 5.504 440.188 6.31466 438.14 7.936C436.092 9.472 434.599 11.4347 433.66 13.824C432.807 16.2133 432.38 18.6453 432.38 21.12C432.38 24.448 432.977 27.392 434.172 29.952C435.452 32.4267 437.884 35.2853 441.468 38.528ZM421.244 80.64C421.244 83.2853 421.628 85.8027 422.396 88.192C423.249 90.5813 424.529 92.5013 426.236 93.952C427.943 95.4027 430.247 96.1707 433.148 96.256C436.135 96.256 438.609 95.7013 440.572 94.592C442.535 93.3973 444.071 91.8613 445.18 89.984C446.375 88.0213 447.185 86.016 447.612 83.968C448.124 81.92 448.38 80.0427 448.38 78.336C448.38 76.032 448.124 73.8987 447.612 71.936C447.185 69.9733 446.375 68.096 445.18 66.304C443.985 64.4267 442.364 62.6347 440.316 60.928L431.868 53.76C428.369 57.088 425.724 61.2267 423.932 66.176C422.14 71.04 421.244 75.8613 421.244 80.64ZM483.443 97.28C481.224 97.28 479.262 96.4267 477.555 94.72C475.934 93.0133 475.123 91.0507 475.123 88.832C475.123 86.4427 475.934 84.4373 477.555 82.816C479.262 81.1947 481.224 80.384 483.443 80.384C485.747 80.384 487.71 81.1947 489.331 82.816C491.038 84.4373 491.891 86.4427 491.891 88.832C491.891 91.0507 491.038 93.0133 489.331 94.72C487.71 96.4267 485.747 97.28 483.443 97.28Z"
    fill="black" />
</svg>